<?xml version="1.0" standalone="no"?>
<!DOCTYPE svg PUBLIC "-//W3C//DTD SVG 20010904//EN"
 "http://www.w3.org/TR/2001/REC-SVG-20010904/DTD/svg10.dtd">
<svg version="1.0" xmlns="http://www.w3.org/2000/svg"
 width="1800.000000pt" height="1800.000000pt" viewBox="0 0 1800.000000 1800.000000"
 preserveAspectRatio="xMidYMid meet">
<metadata>
Created by potrace 1.16, written by Peter Selinger 2001-2019
</metadata>
<g transform="translate(0.000000,1800.000000) scale(0.100000,-0.100000)"
fill="#000000" stroke="none">
<path d="M8630 9726 c0 -3 24 -29 54 -59 117 -117 176 -246 176 -387 0 -216
-129 -408 -343 -509 -171 -81 -311 -105 -577 -98 -207 4 -211 0 -23 -29 160
-24 427 -24 544 -1 395 79 609 290 609 601 0 163 -47 271 -177 407 l-76 79
-93 0 c-52 0 -94 -2 -94 -4z"/>
</g>
</svg>
